<?xml version="1.0" standalone="no"?>
<!DOCTYPE svg PUBLIC "-//W3C//DTD SVG 20010904//EN"
 "http://www.w3.org/TR/2001/REC-SVG-20010904/DTD/svg10.dtd">
<svg version="1.0" xmlns="http://www.w3.org/2000/svg"
 width="257.000000pt" height="323.000000pt" viewBox="0 0 257.000000 323.000000"
 preserveAspectRatio="xMidYMid meet">

<g transform="translate(0.000000,323.000000) scale(0.100000,-0.100000)"
fill="#000000" stroke="none">
<path d="M992 3035 c55 -20 219 -44 343 -49 l110 -5 -100 9 c-55 5 -127 14
-160 20 -33 5 -78 12 -100 15 -22 4 -56 10 -75 16 -50 13 -61 10 -18 -6z"/>
<path d="M1568 2983 c7 -3 16 -2 19 1 4 3 -2 6 -13 5 -11 0 -14 -3 -6 -6z"/>
<path d="M802 2871 c42 -27 450 -100 427 -77 -3 3 -54 12 -114 21 -96 14 -247
44 -310 61 -17 4 -18 3 -3 -5z"/>
<path d="M1338 2841 c-76 -48 -101 -107 -79 -187 14 -51 63 -120 101 -142 24
-14 26 -19 17 -39 -22 -49 26 -94 75 -69 19 10 23 20 23 54 0 37 4 45 31 63
122 77 123 272 2 335 -47 24 -118 18 -170 -15z m169 -105 c9 -8 0 -10 -39 -7
-47 3 -50 4 -33 17 20 15 51 10 72 -10z m51 -7 c-3 -8 -7 -3 -11 10 -4 17 -3
21 5 13 5 -5 8 -16 6 -23z"/>
<path d="M1618 2773 c12 -2 32 -2 45 0 12 2 2 4 -23 4 -25 0 -35 -2 -22 -4z"/>
<path d="M645 2640 c-4 -17 -5 -34 -2 -36 2 -3 7 10 11 27 8 42 0 50 -9 9z"/>
<path d="M716 2632 c-3 -5 -8 -28 -12 -51 -4 -23 -10 -44 -15 -47 -16 -9 -49
16 -50 39 -1 18 -2 19 -6 4 -3 -10 3 -27 13 -38 18 -20 18 -20 -11 -9 l-30 11
25 -27 c14 -15 19 -24 11 -19 -11 6 -13 1 -9 -23 2 -17 0 -33 -6 -35 -17 -6
80 -46 161 -67 197 -50 470 -80 731 -80 265 0 335 17 353 84 7 23 5 27 -9 21
-9 -4 -28 -9 -42 -12 -16 -2 -13 1 10 9 40 15 51 48 40 119 -6 42 -13 40 -23
-6 -4 -16 -5 -15 -6 5 -2 42 -40 79 -86 82 -37 3 -41 1 -59 -35 -16 -35 -17
-44 -5 -98 7 -32 18 -59 24 -60 5 -1 -1 -5 -15 -9 -37 -12 -214 -12 -374 1
-78 5 -146 11 -151 13 -7 2 -8 31 -4 77 3 41 5 75 5 76 -1 0 -17 3 -36 5 l-35
3 -9 -55 c-5 -30 -10 -56 -12 -58 -1 -2 -28 0 -59 3 l-58 8 6 61 6 61 -107 22
c-59 12 -117 25 -128 28 -12 4 -24 3 -28 -3z m1081 -98 c-3 -3 -12 -4 -19 -1
-8 3 -5 6 6 6 11 1 17 -2 13 -5z m39 -70 c-3 -9 -6 -27 -6 -40 0 -21 -5 -24
-35 -24 -40 0 -40 20 1 38 13 7 24 18 24 27 0 8 5 15 11 15 6 0 8 -7 5 -16z
m-53 -91 c-7 -2 -19 -2 -25 0 -7 3 -2 5 12 5 14 0 19 -2 13 -5z"/>
<path d="M701 2334 c6 -8 20 -14 31 -14 11 0 27 -8 36 -19 10 -10 38 -26 65
-35 49 -18 62 -36 26 -36 -20 0 -61 -16 -187 -72 -31 -13 -47 -28 -57 -52 -16
-39 -70 -70 -96 -55 -14 7 -31 -5 -86 -60 -37 -38 -76 -84 -86 -102 -17 -33
-17 -33 0 -10 38 53 89 110 122 137 27 22 36 25 51 17 24 -16 85 22 108 67 17
34 47 50 134 69 34 8 37 7 35 -12 -1 -16 6 -24 31 -32 l34 -12 -26 -17 c-29
-19 -31 -25 -13 -49 11 -15 19 -16 62 -8 28 5 65 12 84 15 l34 6 -6 -52 c-3
-29 -3 -48 -1 -42 3 8 19 9 48 3 24 -4 69 -9 100 -10 39 -2 56 -6 56 -16 0
-17 -44 -104 -82 -163 -27 -41 -27 -42 -3 -15 39 46 100 173 114 241 l13 61
141 2 c77 1 163 6 190 12 27 5 53 7 57 4 5 -3 32 -46 60 -95 60 -106 78 -122
23 -21 -21 38 -35 73 -31 76 3 4 25 -3 48 -15 23 -12 40 -18 37 -13 -3 5 -2
15 3 23 5 9 5 19 -2 27 -8 10 -7 13 3 13 17 1 -81 66 -130 87 -27 11 -31 17
-20 24 8 5 25 9 39 9 14 0 32 4 40 10 13 8 13 9 0 14 -8 2 -100 7 -205 10
-268 8 -597 51 -758 100 -41 12 -46 12 -36 0z m1007 -217 c30 -16 52 -30 49
-33 -5 -6 -97 42 -112 58 -13 14 -3 10 63 -25z"/>
<path d="M1850 1966 c0 -2 23 -18 51 -36 28 -17 48 -26 44 -20 -7 11 -80 60
-90 60 -3 0 -5 -2 -5 -4z"/>
<path d="M1760 1870 c6 -11 13 -20 16 -20 2 0 0 9 -6 20 -6 11 -13 20 -16 20
-2 0 0 -9 6 -20z"/>
<path d="M700 1826 c0 -5 16 -26 35 -47 19 -22 35 -44 35 -49 0 -16 -34 -12
-85 11 -25 11 -49 18 -52 16 -2 -3 1 -31 7 -63 14 -65 14 -65 -64 -89 -73 -22
-173 -20 -214 5 -17 11 -32 24 -32 29 0 6 22 39 49 74 33 45 46 69 40 78 -6
10 -9 10 -9 2 0 -14 -53 -44 -71 -41 -7 2 -22 -24 -34 -57 -12 -33 -36 -88
-53 -122 -18 -35 -29 -63 -25 -63 4 0 2 -5 -5 -12 -32 -32 12 -96 86 -125 170
-65 467 47 684 259 l75 73 -69 -63 -70 -63 -61 54 c-34 30 -64 63 -67 74 -5
22 -99 134 -100 119z"/>
<path d="M256 1656 c-14 -24 -26 -51 -26 -58 0 -7 14 11 31 40 17 29 29 55 26
58 -2 3 -16 -15 -31 -40z"/>
<path d="M1976 1518 c32 -55 183 -275 209 -305 l32 -37 1 32 c0 18 -4 32 -9
32 -5 0 -9 12 -9 28 -1 23 -2 25 -11 9 -5 -9 -7 -23 -3 -30 6 -8 3 -8 -9 1 -9
8 -57 74 -108 148 -50 74 -93 134 -96 134 -2 0 -1 -6 3 -12z"/>
<path d="M1155 1497 c-16 -13 -15 -14 14 -9 18 2 39 -1 49 -9 14 -11 13 -9 -2
9 -22 25 -35 27 -61 9z"/>
<path d="M1815 1430 c-3 -5 2 -10 12 -10 11 0 24 -5 31 -12 7 -7 12 -9 12 -6
0 10 -30 38 -40 38 -5 0 -12 -4 -15 -10z"/>
<path d="M1168 1423 c7 -3 16 -2 19 1 4 3 -2 6 -13 5 -11 0 -14 -3 -6 -6z"/>
<path d="M1817 1359 c7 -7 15 -10 18 -7 3 3 -2 9 -12 12 -14 6 -15 5 -6 -5z"/>
<path d="M1295 1193 c-242 -51 -454 -229 -529 -442 -14 -41 -20 -86 -21 -171
l-1 -115 -53 3 c-34 2 -63 10 -81 24 -16 11 -34 17 -42 13 -7 -3 -4 1 6 9 16
13 18 20 8 40 -14 32 -54 58 -76 50 -22 -8 -20 -26 6 -60 12 -16 16 -24 8 -18
-8 6 -42 19 -74 29 -58 18 -60 20 -121 114 -77 118 -155 263 -200 373 -26 63
-35 76 -34 53 0 -39 26 -167 28 -137 0 12 5 22 10 22 12 0 24 -51 26 -115 1
-27 11 -65 21 -83 113 -199 163 -274 217 -330 140 -143 333 -242 556 -287 129
-27 374 -17 496 20 116 34 263 104 244 115 -7 5 -11 10 -9 12 114 84 204 195
247 304 23 58 27 84 27 164 -1 126 -25 189 -105 274 -125 134 -334 186 -554
139z m323 -267 c34 -16 62 -32 62 -37 0 -4 -22 -36 -50 -70 -27 -34 -50 -66
-50 -72 0 -18 35 -67 48 -67 7 0 41 18 75 39 35 23 66 36 71 31 4 -4 7 -39 4
-77 -4 -80 -40 -162 -94 -214 l-34 -33 -48 23 -49 23 -42 -23 c-22 -13 -41
-29 -41 -35 0 -5 -15 -23 -32 -40 -31 -27 -38 -29 -114 -29 -98 0 -118 12
-111 64 3 27 -2 44 -20 67 l-23 31 -62 -13 c-94 -20 -106 -18 -115 14 -13 47
-6 135 15 183 21 48 77 119 94 119 5 0 33 -22 62 -50 55 -51 73 -59 94 -38 10
10 17 10 33 0 19 -12 19 -11 9 8 -6 12 -7 20 -1 20 21 0 20 39 -4 98 -14 34
-25 66 -25 71 0 9 42 26 90 35 14 2 63 3 110 2 69 -2 97 -8 148 -30z"/>
<path d="M1340 656 c0 -2 8 -10 18 -17 15 -13 16 -12 3 4 -13 16 -21 21 -21
13z"/>
<path d="M1370 616 c0 -2 8 -10 18 -17 15 -13 16 -12 3 4 -13 16 -21 21 -21
13z"/>
<path d="M1445 521 c27 -34 54 -65 59 -69 6 -3 -12 22 -39 57 -27 34 -54 65
-59 69 -6 3 12 -22 39 -57z"/>
<path d="M187 1194 c-4 -4 -7 -19 -6 -33 l0 -26 10 23 c5 14 14 20 20 16 7 -4
10 -1 7 6 -5 16 -22 23 -31 14z"/>
<path d="M670 1172 c-21 -17 -22 -21 -9 -48 8 -16 24 -30 35 -32 45 -6 59 58
18 85 -19 12 -24 11 -44 -5z m57 -28 c4 -11 -1 -22 -12 -31 -16 -11 -21 -11
-33 1 -8 8 -12 22 -9 30 8 21 46 21 54 0z"/>
<path d="M206 1125 c-3 -8 -1 -15 3 -15 5 0 11 7 15 15 3 8 1 15 -3 15 -5 0
-11 -7 -15 -15z"/>
<path d="M2097 1063 c-3 -5 1 -17 9 -28 14 -18 14 -18 14 2 0 23 -15 39 -23
26z"/>
<path d="M2070 995 c0 -8 4 -15 10 -15 5 0 7 7 4 15 -4 8 -8 15 -10 15 -2 0
-4 -7 -4 -15z"/>
</g>
</svg>
